<?xml version="1.0" encoding="UTF-8" standalone="no"?>
<!-- Created with Inkscape (http://www.inkscape.org/) -->

<svg
   xmlns:dc="http://purl.org/dc/elements/1.1/"
   xmlns:cc="http://creativecommons.org/ns#"
   xmlns:rdf="http://www.w3.org/1999/02/22-rdf-syntax-ns#"
   xmlns:svg="http://www.w3.org/2000/svg"
   xmlns="http://www.w3.org/2000/svg"
   xmlns:sodipodi="http://sodipodi.sourceforge.net/DTD/sodipodi-0.dtd"
   xmlns:inkscape="http://www.inkscape.org/namespaces/inkscape"
   width="990"
   height="765"
   id="svg2"
   version="1.1"
   inkscape:version="0.48.3.1 r9886"
   sodipodi:docname="morgan-hot-dog-signed.svg">
  <defs
     id="defs4" />
  <sodipodi:namedview
     id="base"
     pagecolor="#ffffff"
     bordercolor="#666666"
     borderopacity="1.0"
     inkscape:pageopacity="0.0"
     inkscape:pageshadow="2"
     inkscape:zoom="1.4"
     inkscape:cx="592.80639"
     inkscape:cy="170.05838"
     inkscape:document-units="px"
     inkscape:current-layer="layer2"
     showgrid="false"
     inkscape:window-width="1680"
     inkscape:window-height="1029"
     inkscape:window-x="0"
     inkscape:window-y="0"
     inkscape:window-maximized="1"
     showguides="true"
     inkscape:guide-bbox="true" />
  <metadata
     id="metadata7">
    <rdf:RDF>
      <cc:Work
         rdf:about="">
        <dc:format>image/svg+xml</dc:format>
        <dc:type
           rdf:resource="http://purl.org/dc/dcmitype/StillImage" />
        <dc:title />
      </cc:Work>
    </rdf:RDF>
  </metadata>
  <g
     inkscape:label="Layer 1"
     inkscape:groupmode="layer"
     id="layer1"
     transform="translate(0,-287.36218)"
     sodipodi:insensitive="true">
    <text
       xml:space="preserve"
       style="font-size:36px;font-style:normal;font-variant:normal;font-weight:normal;font-stretch:normal;text-align:center;line-height:125%;letter-spacing:0px;word-spacing:0px;writing-mode:lr-tb;text-anchor:middle;fill:#000000;fill-opacity:1;stroke:none;font-family:Aldine721 BT;-inkscape-font-specification:Aldine721 BT"
       x="496.88574"
       y="375.21933"
       id="text2985"
       sodipodi:linespacing="125%"><tspan
         sodipodi:role="line"
         x="500.60004"
         y="375.21933"
         style="font-size:36px;font-style:normal;font-variant:normal;font-weight:normal;font-stretch:normal;text-align:center;line-height:125%;letter-spacing:7.42857218;writing-mode:lr-tb;text-anchor:middle;font-family:Aldine721 BT;-inkscape-font-specification:Aldine721 BT"
         id="tspan2989">CERTIFICATE OF COMPETENCY</tspan></text>
    <text
       xml:space="preserve"
       style="font-size:24px;font-style:italic;font-variant:normal;font-weight:normal;font-stretch:normal;text-align:start;line-height:125%;letter-spacing:0px;word-spacing:0px;writing-mode:lr-tb;text-anchor:start;fill:#000000;fill-opacity:1;stroke:none;font-family:Aldine721 BT;-inkscape-font-specification:Aldine721 BT Italic"
       x="480.69141"
       y="425.21933"
       id="text2993"
       sodipodi:linespacing="125%"><tspan
         sodipodi:role="line"
         id="tspan2995"
         x="480.69141"
         y="425.21933">AS</tspan></text>
    <text
       xml:space="preserve"
       style="font-size:144px;font-style:normal;font-variant:normal;font-weight:normal;font-stretch:normal;text-align:start;line-height:125%;letter-spacing:0px;word-spacing:0px;writing-mode:lr-tb;text-anchor:start;fill:#000000;fill-opacity:1;stroke:none;font-family:Aldine721 BT;-inkscape-font-specification:Aldine721 BT"
       x="183.83203"
       y="549.505"
       id="text2997"
       sodipodi:linespacing="125%"><tspan
         sodipodi:role="line"
         id="tspan2999"
         x="183.83203"
         y="549.505">MASTER</tspan></text>
    <text
       xml:space="preserve"
       style="font-size:36px;font-style:normal;font-variant:normal;font-weight:normal;font-stretch:normal;text-align:center;line-height:125%;letter-spacing:0px;word-spacing:0px;writing-mode:lr-tb;text-anchor:middle;fill:#000000;fill-opacity:1;stroke:none;font-family:Aldine721 BT;-inkscape-font-specification:Aldine721 BT"
       x="494.22656"
       y="603.505"
       id="text3001"
       sodipodi:linespacing="125%"><tspan
         sodipodi:role="line"
         id="tspan3003"
         x="494.22656"
         y="603.505">HOT DOG MAKER</tspan></text>
    <text
       xml:space="preserve"
       style="font-size:25.60000038px;font-style:normal;font-variant:normal;font-weight:normal;font-stretch:normal;text-align:start;line-height:125%;letter-spacing:0px;word-spacing:0px;writing-mode:lr-tb;text-anchor:start;fill:#000000;fill-opacity:1;stroke:none;font-family:Aldine721 BT;-inkscape-font-specification:Aldine721 BT"
       x="227.911"
       y="683.79071"
       id="text3005"
       sodipodi:linespacing="125%"><tspan
         sodipodi:role="line"
         x="227.911"
         y="683.79071"
         id="tspan3009" /></text>
    <flowRoot
       xml:space="preserve"
       id="flowRoot3032"
       style="font-size:24px;font-style:italic;font-variant:normal;font-weight:normal;font-stretch:normal;text-align:center;line-height:125%;letter-spacing:0px;word-spacing:0px;writing-mode:lr-tb;text-anchor:middle;fill:#000000;fill-opacity:1;stroke:none;font-family:Aldine721 BT;-inkscape-font-specification:Aldine721 BT Italic"
       transform="translate(-21.9375,253.07647)"><flowRegion
         id="flowRegion3034"><rect
           id="rect3036"
           width="824.28583"
           height="185.71429"
           x="107.14286"
           y="365"
           style="font-size:24px;font-style:italic;font-variant:normal;font-weight:normal;font-stretch:normal;text-align:center;text-anchor:middle;font-family:Aldine721 BT;-inkscape-font-specification:Aldine721 BT Italic" /></flowRegion><flowPara
         id="flowPara3038"
         style="font-size:24px;font-style:italic;font-variant:normal;font-weight:normal;font-stretch:normal;text-align:center;text-anchor:middle;font-family:Aldine721 BT;-inkscape-font-specification:Aldine721 BT Italic">To</flowPara><flowPara
         style="font-size:64px;font-style:normal;font-variant:normal;font-weight:normal;font-stretch:normal;text-align:center;text-anchor:middle;font-family:Aldine721 BT;-inkscape-font-specification:Aldine721 BT"
         id="flowPara3068">Morgan Michel-Schottman</flowPara><flowPara
         id="flowPara3040"
         style="font-size:36px;font-style:italic;font-variant:normal;font-weight:normal;font-stretch:normal;text-align:center;text-anchor:middle;font-family:Aldine721 BT;-inkscape-font-specification:Aldine721 BT Italic">WHEREAS</flowPara></flowRoot>    <flowRoot
       transform="translate(21.705078,428.79075)"
       style="font-size:24px;font-style:italic;font-variant:normal;font-weight:normal;font-stretch:normal;text-align:justify;line-height:125%;letter-spacing:0px;word-spacing:0px;writing-mode:lr-tb;text-anchor:start;fill:#000000;fill-opacity:1;stroke:none;font-family:Aldine721 BT;-inkscape-font-specification:Aldine721 BT Italic"
       id="flowRoot3051"
       xml:space="preserve"><flowRegion
         id="flowRegion3053"><rect
           style="font-size:24px;font-style:italic;font-variant:normal;font-weight:normal;font-stretch:normal;text-align:justify;text-anchor:start;font-family:Aldine721 BT;-inkscape-font-specification:Aldine721 BT Italic"
           y="365"
           x="107.14286"
           height="295.71429"
           width="735.71429"
           id="rect3055" /></flowRegion><flowPara
         id="flowPara3061">you have been found duly qualified to fulfill the duties of a Professional Hot-Dog–Maker by the Frankfurt School of Professional Hot-Dog–Making, granted this April 20, 2006.</flowPara></flowRoot>    <path
       style="fill:none;stroke:#000000;stroke-width:1px;stroke-linecap:butt;stroke-linejoin:miter;stroke-opacity:1"
       d="m 587.14286,665 281.42857,0"
       id="path3076"
       inkscape:connector-curvature="0"
       transform="translate(0,287.36218)" />
    <text
       xml:space="preserve"
       style="font-size:16px;font-style:normal;font-variant:normal;font-weight:normal;font-stretch:normal;text-align:start;line-height:125%;letter-spacing:0px;word-spacing:0px;writing-mode:lr-tb;text-anchor:start;fill:#000000;fill-opacity:1;stroke:none;font-family:Aldine721 BT;-inkscape-font-specification:Aldine721 BT"
       x="586.55634"
       y="975.2193"
       id="text3078"
       sodipodi:linespacing="125%"><tspan
         sodipodi:role="line"
         x="586.55634"
         y="975.2193"
         id="tspan3082">Olive Cate</tspan><tspan
         sodipodi:role="line"
         x="586.55634"
         y="995.2193"
         id="tspan3094">Chairman of the Board of Trustees</tspan></text>
    <path
       inkscape:connector-curvature="0"
       id="path3086"
       d="m 130.71429,952.36218 281.42857,0"
       style="fill:none;stroke:#000000;stroke-width:1px;stroke-linecap:butt;stroke-linejoin:miter;stroke-opacity:1" />
    <text
       sodipodi:linespacing="125%"
       id="text3088"
       y="975.2193"
       x="130.12776"
       style="font-size:16px;font-style:normal;font-variant:normal;font-weight:normal;font-stretch:normal;text-align:start;line-height:125%;letter-spacing:0px;word-spacing:0px;writing-mode:lr-tb;text-anchor:start;fill:#000000;fill-opacity:1;stroke:none;font-family:Aldine721 BT;-inkscape-font-specification:Aldine721 BT"
       xml:space="preserve"><tspan
         id="tspan3090"
         y="975.2193"
         x="130.12776"
         sodipodi:role="line">Grace Muzzey</tspan><tspan
         y="995.2193"
         x="130.12776"
         sodipodi:role="line"
         id="tspan3092">President</tspan></text>
  </g>
  <g
     inkscape:groupmode="layer"
     id="layer2"
     inkscape:label="Signatures">
    <path
       style="fill:none;stroke:#000000;stroke-width:1px;stroke-linecap:butt;stroke-linejoin:miter;stroke-opacity:1"
       d="m 164.40233,610.44666 c -3.51089,4.04962 -7.69228,7.56128 -12.12183,10.6066 -2.80917,1.9313 -5.99799,3.33729 -8.5863,5.55584 -2.62382,2.24899 -5.5942,6.39655 -6.31345,9.84899 -0.57553,2.76253 0.42798,5.73659 1.76776,8.08122 0.99577,1.74259 2.30682,3.8949 4.04061,5.05076 5.17466,3.44977 15.33786,3.60768 21.21321,2.52538 5.48618,-1.01061 15.92473,-3.8029 19.95051,-7.82868 3.2574,-3.2574 0.0469,-8.16349 -3.53553,-9.59645 -0.47542,-0.19017 -1.01848,-0.12835 -1.51523,-0.25254 -1.27396,-0.31849 -2.75645,1.16366 -0.75762,2.02031 1.83067,0.78457 3.48442,1.9984 5.3033,2.77792 3.83543,1.64375 8.0323,2.6687 10.85914,6.06091 0.543,0.65161 0.087,2.9601 0.25254,3.78808 0.15044,0.75217 0.75762,1.26593 0.75762,2.0203"
       id="path3059"
       inkscape:connector-curvature="0" />
    <path
       style="fill:none;stroke:#000000;stroke-width:1px;stroke-linecap:butt;stroke-linejoin:miter;stroke-opacity:1"
       d="m 232.58762,625.34641 c 0.64392,-0.33175 -1.76776,2.85561 -1.76776,2.27284 0,-0.0842 0.17087,0.0204 0.25253,0 1.08957,-0.27239 2.19585,-0.47576 3.283,-0.75761 1.44393,-0.37435 2.82891,-0.97798 4.29315,-1.26269 1.57868,-0.30697 3.20126,-0.31496 4.79822,-0.50508 6.21307,-0.73965 12.66342,-2.13654 18.94036,-2.0203 2.28644,0.0423 4.54936,0.47397 6.81853,0.75761 3.38424,0.42303 8.7036,0.43501 10.85914,3.78807 2.10608,3.27613 -1.80148,5.50588 -3.78807,7.07107 -1.60065,1.26112 -3.05085,2.73965 -4.79822,3.78807 -8.52395,5.11437 -18.46966,7.44768 -27.52666,11.36422 -5.46125,2.36162 -10.75351,5.09705 -16.16244,7.57614 -0.45551,0.20878 -6.3742,3.53554 -7.57614,3.53554 -0.0842,0 0.17437,0.0313 0.25253,0 0.34954,-0.13982 0.64875,-0.39967 1.01016,-0.50508 1.66598,-0.48591 3.35335,-0.90154 5.05076,-1.26269 18.24054,-3.88097 -5.15506,1.62749 14.14213,-3.03046 7.08755,-1.71078 8.18501,-1.70716 15.15229,-4.54568 3.97509,-1.61948 7.74451,-3.7039 11.61676,-5.55584 2.04233,-0.97677 11.60468,-6.31346 13.88959,-6.31346 0.0842,0 -0.17438,-0.0313 -0.25253,0 -0.34954,0.13982 -0.68893,0.30877 -1.01016,0.50508 -8.06048,4.92585 1.74301,-0.49329 -8.83883,4.54569 -5.15293,2.45377 -10.64885,5.1631 -15.40483,8.33376 -0.62271,0.41513 -4.04688,4.04061 -5.05076,4.04061 -0.25254,0 0.50646,0.0264 0.75761,0 1.43301,-0.15085 2.89526,-0.15561 4.29315,-0.50508 1.93752,-0.48438 13.23807,-4.55074 14.64721,-5.05076 5.21913,-1.85195 10.4036,-3.80459 15.65737,-5.55584 2.42489,-0.8083 4.92666,-1.38509 7.3236,-2.27285 5.98882,-2.21807 11.60883,-5.30065 17.67767,-7.3236 0.25254,-0.0842 -0.51189,0.15015 -0.75761,0.25254 -0.8369,0.3487 -1.7085,0.61683 -2.52538,1.01015 -4.4477,2.14149 -9.14951,4.27752 -13.38452,6.81853 -3.01411,1.80846 -3.37879,2.45959 -6.06092,4.54569 -0.33101,0.25745 -3.53896,2.26941 -2.27284,3.53553 0.37647,0.37647 2.45737,-0.1724 2.77792,-0.25254 2.57804,-0.64451 5.03703,-1.79992 7.57614,-2.52538 0.57234,-0.16352 1.19885,-0.0775 1.76777,-0.25254 0.53972,-0.16607 0.97951,-0.57904 1.51523,-0.75761 5.097,-1.699 -1.13376,0.66224 2.52538,-0.25254 0.11549,-0.0289 0.16836,-0.33672 0.25254,-0.25254 0.42202,0.42202 -3.57279,2.5999 -3.78807,3.03046 -0.01,0.0195 -0.54285,2.23507 -0.50508,2.27284 0.67868,0.67868 1.84678,-0.52483 2.77792,-0.75761 4.12736,-1.03184 8.10374,-2.11739 12.12183,-3.53554 2.44827,-0.86409 1.53497,-0.75761 3.28299,-0.75761 0.0842,0 0.25254,-0.0842 0.25254,0 0,0.0842 -0.18249,-0.0467 -0.25254,0 -0.1981,0.13207 -0.35633,0.31915 -0.50507,0.50508 -0.1896,0.237 -0.30755,0.52717 -0.50508,0.75761 -1.10249,1.28624 -3.28852,2.53644 -4.04061,4.04061 -0.15058,0.30117 0.0817,0.68349 0,1.01015 -0.32559,1.30238 -1.26951,1.93726 1.26269,1.51523 0.68472,-0.11412 1.36794,-0.26785 2.02031,-0.50507 3.7492,-1.36335 3.41369,-1.63128 7.07107,-3.283 3.98821,-1.80113 7.18265,-3.14205 10.35406,-6.31345 0.55944,-0.55944 1.6807,-1.7329 1.26269,-2.77792 -0.6993,-1.74825 -10.38562,-0.72606 -11.61675,0.50507 -0.32055,0.32055 0.81438,0.43783 1.26269,0.50508 5.10737,0.7661 4.26698,0.50508 10.35406,0.50508 6.98689,0 13.97378,0 20.96067,0 3.7082,0 8.13177,-0.24243 11.86929,0.50507 0.41272,0.0826 -0.59928,0.66631 -1.01015,0.75762 -10.47889,2.32864 5.57455,-2.31324 -8.83884,2.27284 -6.82696,2.17221 -13.76311,3.8511 -20.20305,7.07107 -0.77518,0.38759 -1.63155,0.6797 -2.27284,1.26269 -0.51198,0.46543 -0.92977,1.81369 0,2.0203 1.88642,0.41921 3.24748,0.25254 5.3033,0.25254 4.95676,0 9.52124,-0.65521 14.39467,-1.51523 4.86334,-0.85823 10.83496,-1.25194 15.40483,-3.28299 0.21757,-0.0967 0.29211,-0.3986 0.50507,-0.50508 0.0152,-0.008 -0.51499,1.75785 -0.50507,1.76777 0.51558,0.51558 3.18765,0.97702 3.53553,1.01015 2.51401,0.23943 5.05076,0 7.57615,0 4.18135,0 10.76861,-0.46113 14.64721,1.26269 0.79018,0.35119 -2.07002,2.76665 -3.53554,3.78807 -2.09456,1.45985 -11.15165,6.74017 -12.6269,7.57615 -10.76764,6.10166 -21.58092,12.21184 -31.81981,19.19289 -1.48846,1.01487 -2.87658,2.16998 -4.29315,3.283 -0.94076,0.73917 -1.82079,1.555 -2.77792,2.27284 -0.0673,0.0505 -0.25253,0.0842 -0.25253,0 0,-0.11904 0.1865,-0.15348 0.25253,-0.25253 1.02212,-1.53318 -0.72697,0.79073 0.50508,-1.2627 0.52721,-0.87868 1.0454,-0.62253 -0.50508,-1.01015"
       id="path3061"
       inkscape:connector-curvature="0" />
    <path
       style="fill:none;stroke:#000000;stroke-width:1px;stroke-linecap:butt;stroke-linejoin:miter;stroke-opacity:1"
       d="m 642.9621,622.82103 c -1.42403,-0.13667 -3.38404,-0.62966 -4.79823,-0.25254 -0.65576,0.17487 -1.14227,0.74679 -1.76777,1.01015 -3.82908,1.61225 -7.59723,2.6622 -11.36421,4.54569 -10.94049,5.47024 -17.82805,8.82542 -20.20305,21.71828 -0.37685,2.04573 -1.52741,8.31427 -0.25254,10.35406 3.54982,5.67971 15.48827,3.26631 20.45559,2.27285 2.10448,-0.4209 4.24677,-0.68402 6.31345,-1.26269 7.29382,-2.04227 18.92382,-7.76252 20.96067,-15.90991 0.43068,-1.72274 0.4164,-3.52975 0.50507,-5.3033 0.17838,-3.56763 0.28494,-5.80267 -1.26269,-9.09137 -2.26481,-4.81274 -6.98032,-8.90855 -11.11168,-12.12183 -0.23123,-0.17985 -2.47055,-2.17399 -3.28299,-1.76777 -0.158,0.079 0.2367,0.95115 1.76777,1.51523 1.15009,0.42372 2.34848,0.70491 3.53553,1.01015 5.60383,1.44099 5.8948,1.5669 12.12183,1.76777 12.34088,0.39809 24.66093,0.0822 36.87057,-1.76777 6.02096,-0.91226 12.17172,-1.54017 17.67767,-4.29314 0.37646,-0.18824 -0.84645,-0.0624 -1.26269,0 -1.35518,0.20327 -2.723,0.38115 -4.04061,0.75761 -5.1956,1.48446 -9.82516,4.53112 -14.39468,7.32361 -4.36443,2.66715 -9.03323,5.44511 -12.87944,8.83883 -3.1256,2.75788 -5.98494,5.80685 -9.09138,8.5863 -6.65775,5.95694 -14.73278,13.58252 -8.08122,22.72843 2.23715,3.07607 5.06129,5.75609 8.83884,6.81853 4.77552,1.34311 14.42831,0.43353 19.1929,-0.75762 1.65361,-0.4134 3.19881,-1.17851 4.79822,-1.76776 4.57459,-1.68538 9.36675,-2.93854 13.38452,-5.80838 1.16651,-0.83322 2.18867,-1.85195 3.283,-2.77792 1.09433,-0.92597 2.3187,-1.7172 3.28299,-2.77792 0.17463,-0.19208 2.86017,-4.43772 3.03046,-5.05076 0.20277,-0.72998 0,-1.51523 0,-2.27284 0,-0.16836 0.11905,-0.38603 0,-0.50508 -0.47989,-0.4799 -1.35967,0.0971 -2.0203,0.25254 -4.1025,0.96529 -1.77874,0.55278 -6.31346,2.27284 -2.90813,1.10308 -5.7617,1.95089 -8.33375,3.78807 -0.57196,0.40854 -1.98595,2.06612 -1.2627,3.03046 0.55564,0.74085 2.62901,0.93716 3.03046,1.01015 1.08935,0.19807 2.17824,0.43143 3.283,0.50508 4.72668,0.31511 3.91926,-0.0713 8.58629,-0.75762 4.12166,-0.60612 8.01403,-0.52044 11.8693,-2.27284 2.1624,-0.98291 2.77792,-1.34147 2.77792,-3.53553 0,-0.16836 0.11904,-0.38603 0,-0.50508 -1.42316,-1.42316 -4.38881,0.81884 -3.283,3.03046 1.00701,2.01403 7.41206,-0.31861 8.83884,-0.75762 2.17448,-0.66907 0.90496,0.3402 2.52538,-1.01015 0.27436,-0.22864 1.11475,-0.75761 0.75761,-0.75761 -0.85789,0 -1.26269,1.948 -1.26269,2.52538"
       id="path3065"
       inkscape:connector-curvature="0" />
    <path
       style="fill:none;stroke:#000000;stroke-width:1px;stroke-linecap:butt;stroke-linejoin:miter;stroke-opacity:1"
       d="m 778.32254,613.72966 c -6.31356,-0.53493 -11.668,2.41813 -17.1726,5.05076 -4.33206,2.07185 -7.23072,3.20126 -11.11167,6.06091 -8.23865,6.07059 -13.08903,14.93711 -12.12184,25.25382 0.23563,2.51329 1.07363,5.47916 2.52539,7.57614 2.55201,3.68624 9.91324,7.97196 14.14213,9.09137 4.49915,1.19096 15.63442,0.70928 20.20305,-0.25253 5.43069,-1.14331 12.08358,-5.34754 14.89975,-10.35407 0.83738,-1.48866 1.34656,-5.06171 0.25254,-6.56599 -0.3867,-0.53171 -1.05033,-0.79779 -1.51523,-1.26269 -1.67566,-1.67566 -1.49306,-2.0203 -4.04061,-2.0203 -2.55485,0 -7.33574,4.0679 -8.33376,6.31345 -0.009,0.0194 -0.37966,2.46182 -0.25253,2.52538 3.60833,1.80417 10.24942,-0.29198 13.88959,-1.26269 0.59215,-0.1579 1.21963,-0.23101 1.76777,-0.50508 0.004,-0.002 0.31054,-0.75761 0.50508,-0.75761 0.0505,0 -0.7251,1.85771 -0.75762,2.0203 -0.035,0.17503 -0.0814,3.36437 0.75762,2.52539 0.55576,-0.55577 1.78111,-1.48608 2.27284,-2.27285 0.61773,-0.98837 0.72154,-2.85007 2.0203,-3.28299 0.4845,-0.1615 2.02298,3.28566 2.52539,3.78807 0.89318,0.89319 2.93723,0.95761 4.04061,1.01015 11.46578,0.54599 18.56244,-4.8622 26.5165,-12.37437 5.38969,-5.09026 8.83683,-10.07144 9.34391,-17.67767 0.15183,-2.27747 0.66497,-8.22716 -1.76777,-9.84898 -1.19555,-0.79704 -4.06323,7.06995 -4.29314,7.82868 -1.72498,5.69242 -2.57735,11.61366 -3.78808,17.42513 -0.88104,4.22903 -3.29628,16.34054 -1.01015,20.45559 1.2494,2.24892 3.57195,5.00887 5.80838,6.31345 6.38698,3.72574 17.19593,6.321 24.4962,4.29315 1.12345,-0.31207 2.72568,-1.21045 3.53553,-2.0203 0.69683,-0.69683 0.65154,-1.73492 1.01015,-2.27285 0.76021,-1.14031 2.16631,-1.15615 2.27285,-1.26269 0.33671,-0.33672 -0.4209,-0.25254 0.25254,-0.25254"
       id="path3067"
       inkscape:connector-curvature="0" />
    <path
       style="fill:none;stroke:#000000;stroke-width:1px;stroke-linecap:butt;stroke-linejoin:miter;stroke-opacity:1"
       d="m 762.32857,642.73905 c 6.01701,-1.90777 3.33575,-1.03997 11.17036,-3.63774 7.93203,-2.63009 9.87365,-3.54818 18.50849,-5.22817 12.74248,-2.4792 25.68468,-3.6656 38.58543,-4.90381 10.06682,-0.96621 20.3995,-2.31894 30.55065,-1.87612 2.10249,0.0917 4.17368,0.54391 6.26052,0.81587 4.50757,0.58743 9.01513,1.17486 13.52271,1.76229"
       id="path3073"
       inkscape:connector-curvature="0" />
  </g>
</svg>
