<?xml version="1.0" encoding="UTF-8" standalone="no"?>
<!-- Created with Inkscape (http://www.inkscape.org/) -->

<svg
   xmlns:dc="http://purl.org/dc/elements/1.1/"
   xmlns:cc="http://creativecommons.org/ns#"
   xmlns:rdf="http://www.w3.org/1999/02/22-rdf-syntax-ns#"
   xmlns:svg="http://www.w3.org/2000/svg"
   xmlns="http://www.w3.org/2000/svg"
   xmlns:xlink="http://www.w3.org/1999/xlink"
   xmlns:sodipodi="http://sodipodi.sourceforge.net/DTD/sodipodi-0.dtd"
   xmlns:inkscape="http://www.inkscape.org/namespaces/inkscape"
   width="200"
   height="200"
   id="svg2"
   version="1.1"
   inkscape:version="0.48.2 r9819"
   sodipodi:docname="icon.svg"
   inkscape:export-filename="/home/tlevine/Documents/thomaslevine.com/www/apple-touch-icon-57x57-precomposed.png"
   inkscape:export-xdpi="25.65"
   inkscape:export-ydpi="25.65">
  <defs
     id="defs4" />
  <sodipodi:namedview
     id="base"
     pagecolor="#ffffff"
     bordercolor="#666666"
     borderopacity="1.0"
     inkscape:pageopacity="0.0"
     inkscape:pageshadow="2"
     inkscape:zoom="1.4"
     inkscape:cx="300.76502"
     inkscape:cy="-22.015397"
     inkscape:document-units="px"
     inkscape:current-layer="layer1"
     showgrid="false"
     inkscape:window-width="1366"
     inkscape:window-height="710"
     inkscape:window-x="0"
     inkscape:window-y="26"
     inkscape:window-maximized="1"
     showguides="true"
     inkscape:guide-bbox="true" />
  <metadata
     id="metadata7">
    <rdf:RDF>
      <cc:Work
         rdf:about="">
        <dc:format>image/svg+xml</dc:format>
        <dc:type
           rdf:resource="http://purl.org/dc/dcmitype/StillImage" />
        <dc:title></dc:title>
      </cc:Work>
    </rdf:RDF>
  </metadata>
  <g
     inkscape:groupmode="layer"
     id="layer2"
     inkscape:label="image"
     style="display:none">
    <image
       y="0"
       x="0"
       id="image4130"
       xlink:href="file:///home/tlevine/Documents/thomaslevine.com/www/img/me-200.png"
       height="200"
       width="200" />
  </g>
  <g
     inkscape:label="hair-brown"
     inkscape:groupmode="layer"
     id="layer1"
     transform="translate(0,-852.36218)"
     style="display:inline">
    <use
       x="0"
       y="0"
       xlink:href="#path3844"
       id="use3926"
       transform="matrix(-1,0,0,1,200,-7.8571331e-7)"
       width="180"
       height="315" />
    <path
       id="path3844"
       style="fill:#ca364e;fill-opacity:1;stroke:#ca364e;stroke-opacity:1;display:inline"
       d="M 42.41548,1038.1668 C 43.488572,984.02047 54.424207,926.0385 100,907.50689 l -5e-6,-40.94825 c -71.206669,-0.34463 -78.050572,85.0767 -65.160659,171.60816"
       inkscape:connector-curvature="0"
       sodipodi:nodetypes="cccc" />
    <text
       xml:space="preserve"
       style="font-size:70.04108429px;font-style:normal;font-variant:normal;font-weight:normal;font-stretch:normal;text-align:center;line-height:94.99999881%;letter-spacing:0px;word-spacing:0px;writing-mode:lr-tb;text-anchor:middle;fill:#ca364e;fill-opacity:1;stroke:none;font-family:Century Schoolbook L;-inkscape-font-specification:Century Schoolbook L"
       x="1012.006"
       y="-78.53241"
       id="text3906"
       sodipodi:linespacing="94.999999%"
       transform="matrix(0,1,-1,0,0,0)"><tspan
         sodipodi:role="line"
         id="tspan3908"
         x="1012.006"
         y="-78.53241">)</tspan></text>
    <path
       sodipodi:nodetypes="cccc"
       inkscape:connector-curvature="0"
       id="path3914"
       d="m 79.215754,908.36895 c -0.505076,12.6269 -24.243661,58.58884 -24.243661,58.58884 0,0 32.829957,-35.35534 36.870565,-64.14469 0,0.50507 -12.626904,5.55585 -12.626904,5.55585 z"
       style="fill:#ca364e;fill-opacity:1;stroke:none" />
    <path
       sodipodi:nodetypes="cccc"
       inkscape:connector-curvature="0"
       id="path3920"
       d="m 93.357893,904.36895 c -0.50508,12.6269 -17.67767,45.45686 -17.67767,45.45686 0,0 26.263957,-22.22336 30.304567,-51.01271 0,0.50507 -12.626897,5.55585 -12.626897,5.55585 z"
       style="fill:#ca364e;fill-opacity:1;stroke:none" />
    <path
       style="fill:#ca364e;fill-opacity:1;stroke:none"
       d="m 115.05586,902.34864 c 0.50507,12.6269 24.24365,58.58884 24.24365,58.58884 0,0 -32.82995,-35.35534 -36.87055,-64.14469 0,0.50507 12.6269,5.55585 12.6269,5.55585 z"
       id="path3922"
       inkscape:connector-curvature="0"
       sodipodi:nodetypes="cccc" />
    <path
       style="fill:#ca364e;fill-opacity:1;stroke:none"
       d="m 103.50002,902.34864 c -0.50508,12.6269 -13.637054,50.50762 -13.637054,50.50762 0,0 22.223354,-27.27412 26.263954,-56.06347 0,0.50507 -12.6269,5.55585 -12.6269,5.55585 z"
       id="path3924"
       inkscape:connector-curvature="0"
       sodipodi:nodetypes="cccc" />
  </g>
  <g
     inkscape:groupmode="layer"
     id="layer7"
     inkscape:label="text"
     style="display:inline"
     transform="translate(0,-115)" />
  <g
     inkscape:groupmode="layer"
     id="layer5"
     inkscape:label="glasses"
     style="display:inline"
     transform="translate(0,-115)" />
</svg>
